<?xml version="1.0" standalone="no"?>
<!DOCTYPE svg PUBLIC "-//W3C//DTD SVG 20010904//EN"
 "http://www.w3.org/TR/2001/REC-SVG-20010904/DTD/svg10.dtd">
<svg version="1.0"  xmlns="http://www.w3.org/2000/svg"
 width="1000.000000pt" height="500.000000pt" viewBox="0 0 1000.000000 500.000000"
 preserveAspectRatio="xMidYMid meet">

<g transform="translate(0.000000,500.000000) scale(0.100000,-0.100000)"
fill="white" stroke="none">
<path d="M312 4073 l3 -118 855 0 855 0 0 115 0 115 -858 3 -858 2 3 -117z"/>
<path d="M2286 4182 c-11 -18 -4 -223 7 -228 7 -2 559 -3 1227 -2 l1215 3 -58
43 c-132 98 -262 149 -468 182 -79 12 -1915 14 -1923 2z"/>
<path d="M5250 4070 l0 -120 723 0 c398 0 726 2 729 5 7 8 -15 85 -24 85 -4 0
-8 10 -8 23 0 13 -4 27 -8 33 -5 5 -14 28 -21 52 l-12 42 -689 0 -690 0 0
-120z"/>
<path d="M7789 4163 c-6 -16 -20 -53 -30 -83 -11 -30 -24 -63 -30 -72 -5 -10
-9 -27 -9 -38 0 -20 3 -20 728 -18 l727 3 3 118 3 117 -691 0 -690 0 -11 -27z"/>
<path d="M317 3713 c-4 -3 -7 -57 -7 -120 l0 -113 858 2 857 3 1 110 c1 72 -2
113 -10 117 -14 10 -1690 10 -1699 1z"/>
<path d="M2287 3712 c-3 -4 -5 -58 -6 -119 l0 -113 1364 0 c1250 0 1365 1
1365 16 0 24 -38 140 -64 194 l-12 25 -1321 2 c-727 2 -1324 -1 -1326 -5z"/>
<path d="M5250 3600 l0 -120 816 0 c773 0 816 1 809 18 -4 9 -12 31 -17 47 -6
17 -14 35 -18 40 -4 6 -11 25 -15 43 -3 18 -13 46 -22 62 l-14 30 -770 0 -769
0 0 -120z"/>
<path d="M7620 3688 c-7 -18 -16 -42 -20 -53 -11 -26 -50 -144 -50 -150 0 -3
367 -5 815 -5 l816 0 -3 118 -3 117 -771 3 -772 2 -12 -32z"/>
<path d="M800 3125 l0 -115 365 0 365 0 -1 115 -2 115 -363 0 -364 0 0 -115z"/>
<path d="M2770 3125 l0 -115 370 0 370 0 0 115 0 115 -370 0 -370 0 0 -115z"/>
<path d="M4250 3125 l0 -115 375 0 c206 0 375 3 375 8 1 4 5 27 11 52 5 25 13
73 17 108 l8 62 -393 0 -393 0 0 -115z"/>
<path d="M5740 3125 l0 -115 657 0 c511 0 654 3 645 12 -7 7 -12 21 -12 33 0
12 -4 25 -8 31 -5 5 -19 42 -31 82 l-23 72 -614 0 -614 0 0 -115z"/>
<path d="M7447 3202 c-9 -21 -17 -43 -17 -49 0 -6 -7 -24 -15 -39 -8 -16 -15
-37 -15 -46 0 -9 -4 -20 -10 -23 -5 -3 -10 -13 -10 -21 0 -12 91 -14 655 -14
l655 0 0 115 0 115 -613 0 -613 0 -17 -38z"/>
<path d="M800 2655 l0 -115 365 0 364 0 -2 113 -2 112 -362 3 -363 2 0 -115z"/>
<path d="M2770 2655 l0 -115 954 0 953 0 56 58 c65 67 137 153 137 164 0 5
-472 8 -1050 8 l-1050 0 0 -115z"/>
<path d="M5740 2655 l0 -115 360 0 360 0 0 85 c0 53 4 85 11 85 11 0 34 -50
56 -122 l14 -48 669 0 669 0 6 23 c16 58 54 137 65 137 6 0 10 -32 10 -80 l0
-80 365 0 365 0 0 115 0 115 -702 -2 -702 -3 -8 -35 c-8 -32 -38 -106 -56
-139 -15 -27 -26 -11 -57 81 l-31 93 -697 3 -697 2 0 -115z"/>
<path d="M802 2183 l3 -118 360 0 360 0 0 115 0 115 -363 3 -363 2 3 -117z"/>
<path d="M2772 2183 l3 -118 1040 -3 c572 -1 1046 0 1053 3 18 7 -13 49 -112
153 l-79 82 -954 0 -954 0 3 -117z"/>
<path d="M5740 2180 l0 -120 360 0 360 0 0 120 0 120 -360 0 -360 0 0 -120z"/>
<path d="M6635 2283 c3 -10 16 -45 26 -78 20 -59 34 -96 49 -125 6 -13 73 -15
506 -15 l499 0 26 75 c14 41 28 82 32 90 3 8 8 27 11 43 l6 27 -581 0 c-549 0
-581 -1 -574 -17z"/>
<path d="M7962 2183 l3 -118 360 0 360 0 3 118 3 117 -366 0 -366 0 3 -117z"/>
<path d="M807 1823 c-4 -3 -7 -57 -7 -120 l0 -113 363 2 362 3 0 115 0 115
-356 3 c-195 1 -358 -1 -362 -5z"/>
<path d="M2777 1823 c-4 -3 -7 -57 -7 -120 l0 -113 368 2 367 3 0 115 0 115
-361 3 c-198 1 -363 -1 -367 -5z"/>
<path d="M4257 1817 c-3 -8 -4 -61 -4 -118 l2 -104 393 -3 394 -2 -8 67 c-3
38 -11 78 -15 91 -5 13 -9 34 -9 47 0 12 -7 26 -16 29 -9 3 -177 6 -374 6
-290 0 -359 -3 -363 -13z"/>
<path d="M5738 1714 c-2 -64 -1 -118 1 -120 2 -2 166 -4 363 -4 l358 0 0 120
0 120 -359 0 -360 0 -3 -116z"/>
<path d="M6805 1798 c4 -18 10 -37 13 -43 4 -5 18 -44 32 -85 l25 -75 337 -3
336 -2 15 42 c27 76 67 191 67 195 0 2 -187 3 -416 3 l-416 0 7 -32z"/>
<path d="M7966 1822 c-3 -5 -6 -57 -7 -118 l-2 -109 367 -3 366 -2 0 120 0
120 -359 0 c-198 0 -362 -4 -365 -8z"/>
<path d="M310 1235 l0 -115 858 0 859 0 -1 115 -1 115 -857 0 -858 0 0 -115z"/>
<path d="M2280 1235 l0 -115 1323 0 1322 0 19 38 c10 20 22 44 26 52 4 9 11
36 15 60 4 25 11 53 17 63 8 16 -59 17 -1357 17 l-1365 0 0 -115z"/>
<path d="M5250 1238 l0 -113 602 2 603 2 3 111 3 110 -606 0 -605 0 0 -112z"/>
<path d="M6970 1323 c19 -61 54 -158 64 -177 10 -20 20 -21 178 -21 l167 -1
12 26 c6 14 15 33 20 42 5 10 9 24 9 32 0 7 7 27 15 42 8 16 15 36 15 44 0 9
5 21 12 28 9 9 -45 12 -244 12 l-257 0 9 -27z"/>
<path d="M7962 1239 l3 -110 605 0 605 0 3 110 3 111 -611 0 -611 0 3 -111z"/>
<path d="M9507 1091 c-88 -42 -132 -111 -132 -211 0 -137 93 -230 230 -230 71
0 111 17 160 69 57 60 64 78 65 156 0 63 -4 77 -32 124 -31 50 -48 63 -130
103 -30 14 -121 7 -161 -11z m156 -12 c110 -30 176 -169 131 -277 -71 -171
-296 -176 -380 -9 -34 65 -29 127 12 194 51 83 142 119 237 92z"/>
<path d="M9517 1003 c-4 -3 -7 -60 -7 -125 0 -110 1 -118 19 -118 17 0 20 8
23 48 3 41 6 47 26 50 13 2 37 -2 52 -8 22 -9 30 -20 35 -51 4 -24 12 -39 21
-39 19 0 19 64 -1 80 -8 7 -15 20 -15 30 0 10 7 20 15 24 16 6 21 62 7 84 -16
25 -155 45 -175 25z m112 -24 c71 -25 40 -104 -38 -97 -35 3 -36 4 -39 50 -3
42 -1 47 20 51 13 2 23 5 24 6 1 0 15 -4 33 -10z"/>
<path d="M312 768 l3 -113 844 -3 c583 -1 848 1 855 8 6 6 11 56 11 115 l1
105 -858 0 -859 0 3 -112z"/>
<path d="M2282 768 l3 -113 960 0 c999 0 979 -1 1135 42 99 27 246 98 258 126
2 4 9 7 15 7 7 1 26 12 42 25 l30 25 -1223 0 -1223 0 3 -112z"/>
<path d="M5250 765 l0 -115 605 0 605 0 0 115 0 115 -605 0 -605 0 0 -115z"/>
<path d="M7133 853 c7 -16 20 -48 27 -73 7 -25 17 -49 21 -55 4 -5 10 -25 14
-42 3 -18 9 -33 12 -33 12 0 32 36 33 57 0 12 4 24 9 27 5 3 12 23 16 43 4 21
10 43 15 48 4 6 11 20 14 33 7 22 6 22 -84 22 l-91 0 14 -27z"/>
<path d="M7960 765 l0 -115 610 0 610 0 0 115 0 115 -610 0 -610 0 0 -115z"/>
</g>
</svg>
